<?xml version="1.0" standalone="no"?><!DOCTYPE svg PUBLIC "-//W3C//DTD SVG 1.1//EN" "http://www.w3.org/Graphics/SVG/1.1/DTD/svg11.dtd"><svg t="1576577099041" class="icon" viewBox="0 0 1024 1024" version="1.1" xmlns="http://www.w3.org/2000/svg" p-id="3437" xmlns:xlink="http://www.w3.org/1999/xlink" width="200" height="200"><defs><style type="text/css"></style></defs><path d="M955.8 336.4L546.1 13.7C534.5 4.6 520.5 0 506.5 0c-13.9 0-27.9 4.5-39.4 13.6l-398.7 312A63.97 63.97 0 0 0 43.8 376v648h936.4V386.6c0-19.6-9-38.1-24.4-50.2zM621.3 952H402.7V639.4h218.6V952z m286.9 0H693.3V603.4c0-19.9-16.1-36-36-36H366.7c-19.9 0-36 16.1-36 36V952H115.8V379.9L506.5 74.2l401.7 316.4V952z" p-id="3438"></path></svg>