<?xml version="1.0" standalone="no"?><!DOCTYPE svg PUBLIC "-//W3C//DTD SVG 1.1//EN" "http://www.w3.org/Graphics/SVG/1.1/DTD/svg11.dtd"><svg t="1576636628143" class="icon" viewBox="0 0 1024 1024" version="1.1" xmlns="http://www.w3.org/2000/svg" p-id="2750" xmlns:xlink="http://www.w3.org/1999/xlink" width="200" height="200"><defs><style type="text/css"></style></defs><path d="M959.3 325.9H65.4c-9.9 0-18-8.1-18-18V92.3c0-9.9 8.1-18 18-18h893.9c9.9 0 18 8.1 18 18v215.6c0 9.9-8 18-18 18z m-875.9-36h857.9V110.3H83.4v179.6z" fill="#ffffff" p-id="2751"></path><path d="M921.8 944.9H105c-9.9 0-18-8.1-18-18V317.8c0-9.9 8.1-18 18-18s18 8.1 18 18v591.1h780.8V327.4c0-9.9 8.1-18 18-18s18 8.1 18 18v599.5c0 10-8.1 18-18 18z" fill="#ffffff" p-id="2752"></path><path d="M703.4 577.8H318.5c-9.9 0-18-8.1-18-18V448c0-9.9 8.1-18 18-18h384.9c9.9 0 18 8.1 18 18v111.8c0 10-8 18-18 18z m-366.9-36h348.9V466H336.5v75.8z" p-id="2753"></path></svg>