<?xml version="1.0" standalone="no"?><!DOCTYPE svg PUBLIC "-//W3C//DTD SVG 1.1//EN" "http://www.w3.org/Graphics/SVG/1.1/DTD/svg11.dtd"><svg class="icon" width="200px" height="199.80px" viewBox="0 0 1025 1024" version="1.1" xmlns="http://www.w3.org/2000/svg"><path d="M129.8 641.2c-70.5 0-127.9-57.4-127.9-127.9s57.4-127.9 127.9-127.9 127.9 57.4 127.9 127.9c-0.1 70.6-57.4 127.9-127.9 127.9z m0-191.8c-35.2 0-63.9 28.7-63.9 63.9s28.7 63.9 63.9 63.9 63.9-28.7 63.9-63.9c-0.1-35.2-28.7-63.9-63.9-63.9zM897.4 1022.3c-70.5 0-127.9-57.4-127.9-127.9s57.4-127.9 127.9-127.9 127.9 57.4 127.9 127.9-57.4 127.9-127.9 127.9z m0-191.8c-35.2 0-63.9 28.7-63.9 63.9s28.7 63.9 63.9 63.9 63.9-28.7 63.9-63.9-28.7-63.9-63.9-63.9zM897.4 257.2c-70.5 0-127.9-57.4-127.9-127.9S826.9 1.4 897.4 1.4s127.9 57.4 127.9 127.9-57.4 127.9-127.9 127.9z m0-191.8c-35.2 0-63.9 28.7-63.9 63.9s28.7 63.9 63.9 63.9 63.9-28.7 63.9-63.9-28.7-63.9-63.9-63.9zM512.3 546.1H352.7c-17.7 0-32-14.3-32-32s14.3-32 32-32h159.5c17.7 0 32 14.3 32 32 0.1 17.6-14.2 32-31.9 32zM672.6 926.4H511.9c-17.7 0-32-14.3-32-32V126.8c0-17.7 14.3-32 32-32H673c17.7 0 32 14.3 32 32s-14.3 32-32 32H543.9v703.6h128.8c17.7 0 32 14.3 32 32s-14.4 32-32.1 32z" /></svg>